<svg width="570" height="460" viewBox="0 0 570 460" fill="none" xmlns="http://www.w3.org/2000/svg">
<g clip-path="url(#clip0_4_88)">
<path d="M567.38 309.127C566.985 308.959 566.283 308.836 566.627 308.244C566.703 306.58 566.222 304.892 565.233 303.556C565.266 300.412 562.488 298.173 559.863 296.99C555.942 294.81 551.382 294.099 546.947 293.977C544.393 293.291 541.783 292.286 539.093 292.697C535.503 289.368 532.324 285.566 530.06 281.202C528.009 278.317 524.407 277.388 521.328 276.056C518.09 274.249 515.551 270.873 511.638 270.547C508.933 270.628 506.765 273.085 506.448 275.677C504.024 275.242 501.119 275.787 499.179 273.964C496.841 270.908 493.326 269.193 490.182 267.131C487.718 265.359 484.649 263.66 481.53 264.592C480.438 264.863 479.428 264.303 478.679 263.558C475.405 261.339 471.52 260.374 467.829 259.098C465.052 258.296 461.855 258.555 459.575 260.471C457.151 262.184 454.962 264.268 452.132 265.319C450.406 266.476 448.57 267.496 446.579 268.061C446.123 268.325 445.713 268.661 445.347 269.039C445.102 268.314 444.558 267.71 444.169 267.094C444.124 264.97 444.915 262.871 446.34 261.29C449.543 256.425 453.312 251.704 454.833 245.981C454.959 243.9 453.655 241.973 451.965 240.867C453.696 233.196 454.233 224.858 458.949 218.283C463.612 211.508 471.134 207.339 476.13 200.83C477.359 197.883 475.723 194.805 474.735 192.058C473.423 189.553 470.301 188.349 467.616 189.116C461.217 189.711 454.75 188.986 448.37 189.246C448.314 188.829 449.124 189.225 449.349 188.994C452.591 188.388 455.393 186.053 456.613 183.024C458.003 180.34 457.941 176.458 455.27 174.581C452.159 172.231 448.002 172.581 444.34 172.082C437.959 171.642 431.576 170.853 425.443 169.043C421.938 168.212 418.437 167.363 414.935 166.519C415.418 163.38 415.458 159.726 413.14 157.258C410.673 153.098 410.829 148.043 409.376 143.508C408.603 140.889 407.184 138.018 404.439 137.054C403.465 136.499 403.205 135.285 402.186 134.741C400.263 133.31 397.649 132.858 395.354 133.543C391.388 126.461 384.389 121.884 377.842 117.417C373.214 114.305 367.578 113.478 362.374 111.764C357.436 110.329 352.181 109.571 347.089 110.621C346.012 110.715 344.76 111.165 343.786 111.02C342.998 109.333 341.424 108.076 341.064 106.199C339.611 103.016 338.021 99.8724 336.254 96.8597C335.738 96.4442 335.136 95.8209 335.566 95.1333C336.472 89.5081 338.791 84.2398 340.85 78.9577C341.179 77.1557 340.968 75.3156 341.013 73.4965C344.367 71.2943 348.431 69.47 350.256 65.6645C351.648 60.1878 352.623 54.5854 353.063 48.9505C353.174 46.3299 353.204 43.5444 352.119 41.1185C351.039 39.8914 349.438 39.2607 348.619 37.8491C346.416 36.0585 343.129 36.334 340.824 37.7814C334.939 32.4254 326.469 30.8863 321.005 25.0135C321.399 19.452 323.081 13.7756 321.642 8.23116C320.47 5.9607 317.498 5.25263 315.194 5.97094C315.366 3.01745 313.115 -0.192163 309.92 0.0104657C307.666 0.0838902 305.93 1.79827 303.782 2.16482C301.051 3.7295 300.295 7.25957 297.603 8.85043C297.179 9.21187 297.128 10.3144 296.386 9.7708C293.901 8.99501 290.76 9.51524 289.268 11.8244C286.466 15.0619 283.085 18.1594 281.686 22.327C281.382 25.4563 284.115 28.2032 287.059 28.6978C290.312 30.5141 292.923 33.4414 296.476 34.6845C295.517 35.4847 294.852 36.6465 293.84 37.3232C291.717 37.2014 289.986 35.4153 287.781 35.7676C284.934 35.8621 282.018 36.1621 279.343 37.1707C276.978 38.3324 275.078 40.7548 275.117 43.4573C272.04 44.0071 269.48 46.9122 269.721 50.1065C269.713 51.3467 269.886 52.579 269.91 53.8175C268.89 54.0742 267.973 54.6725 267.121 55.2103C265.099 54.2 263.507 52.3735 262.694 50.2647C260.782 47.5224 257.055 46.2542 253.856 47.2002C250.743 45.1887 248.314 41.9023 244.582 40.9819C241.566 40.7799 238.868 42.8226 237.129 45.0971C235.667 47.5207 235.374 50.4497 234.028 52.9234C233.523 54.4084 233.224 55.9611 233.097 57.5229C230.38 57.7529 227.879 59.667 226.991 62.2272C224.467 64.1317 223.041 67.306 223.064 70.4428C221.464 71.3432 219.903 72.4048 218.653 73.7332C215.091 74.2222 212.321 77.4853 208.61 77.0977C204.823 75.8455 200.892 77.265 197.17 78.0402C196.365 78.2577 195.552 78.3607 194.84 77.8427C189.253 75.2518 183.046 74.6342 177.133 73.1703C176.634 69.9852 173.88 67.1979 174.649 63.8613C175.611 60.3381 176.408 56.1711 174.207 52.9393C172.549 50.2442 170.901 47.5395 169.438 44.7345C171.975 42.9758 174.792 40.769 175.212 37.4968C174.956 32.7094 169.796 29.0877 165.179 30.1748C161.837 30.7355 158.439 31.1385 155.054 30.6473C152.224 30.3775 149.308 29.7001 146.467 30.254C143.483 31.6223 142.508 35.265 142.846 38.2902C142.533 41.9171 141.84 46.026 144.025 49.2237C144.36 49.7006 145.177 49.8651 145.367 50.3222C145.272 52.7714 145.224 55.2223 145.088 57.6703C141.045 58.7216 136.761 58.8491 132.64 58.1849C129.365 58.3363 126.504 61.7445 127.466 65.002C128.1 68.3044 130.365 71.2089 130.108 74.6661C130.057 75.1545 130.59 76.3207 129.708 76.1244C125.898 76.3315 121.93 77.3527 118.218 76.0612C114.487 75.554 111.001 77.6651 107.269 77.2758C104.233 77.3299 101.11 76.3936 98.1313 77.2439C95.3514 78.2486 93.4419 81.2168 93.7514 84.1561C92.8388 90.2754 88.4652 95.1373 86.5825 100.975C85.6124 103.694 84.2985 106.468 81.8555 108.187C79.6844 110.124 79.0842 113.38 80.1301 116.052C81.5027 119.609 84.0181 122.607 86.5723 125.392C88.8061 127.804 91.3403 129.944 93.8466 132.055C91.9206 131.827 89.8993 132.213 88.1774 132.985C84.6998 131.019 80.3074 131.311 77.0869 128.812C74.5521 126.996 71.681 125.441 68.4913 125.369C65.1898 125.134 62.2863 123.249 59.2083 122.172C57.4424 121.019 55.4856 119.686 53.2529 120.074C48.6222 120.315 43.8 122.491 41.4727 126.663C39.8362 129.214 38.5156 132.464 35.4906 133.621C33.0857 134.347 30.2198 134.76 28.6238 136.939C28.2128 137.57 27.502 137.381 26.9235 137.149C23.6169 136.319 20.5155 139.327 20.2385 142.505C20.0578 143.736 20.4061 144.964 20.8701 146.068C20.7777 148.228 21.7519 150.306 23.2179 151.839C24.0421 153.732 25.2015 155.755 27.3339 156.365C30.4979 157.45 33.7333 155.817 36.7349 154.93C38.1889 154.405 39.6174 153.788 40.9671 153.044C42.261 157.174 41.8518 161.831 40.0226 165.766C38.9077 168.331 38.2784 171.049 37.6366 173.756C36.8648 176.327 36.3439 179.19 37.4873 181.736C37.7432 182.614 38.1433 183.709 37.9028 184.543C35.2768 184.177 33.5235 181.95 31.3917 180.627C27.7642 179.192 23.4658 182.529 23.6836 186.353C21.9873 194.448 20.9396 202.662 19.4992 210.797C18.2521 215.354 16.8704 220.012 17.2853 224.79C17.2072 230.131 16.403 235.561 17.5378 240.842C18.9731 243.672 22.6599 244.268 25.4797 243.5C30.6592 242.817 35.6308 241.142 40.7032 239.953C42.9057 242.414 46.5184 242.519 49.0702 244.457C51.5782 245.879 54.0857 247.363 56.7054 248.599C46.5674 260.586 38.2796 274.015 28.8392 286.507C27.1617 287.356 25.1308 287.266 23.5018 288.304C21.4013 289.398 20.002 291.686 20.2015 294.076C20.1752 296.552 19.6372 298.99 18.4288 301.165C16.957 304.222 14.8651 307.428 15.3587 310.974C16.2251 313.708 14.6964 316.702 16.0849 319.336C16.4805 320.26 17.5036 320.896 17.2745 322.027C16.9405 325.105 15.4385 328.321 16.664 331.404C17.2728 333.251 19.2632 334.087 20.1011 335.752C20.6529 338.468 23.0914 340.256 25.4489 341.376C26.1602 342.083 26.8819 343.119 27.2438 343.93C23.3764 346.36 19.7232 350.019 19.2011 354.773C19.1384 355.472 19.7802 356.481 18.8711 356.847C17.763 357.779 16.8863 359.099 15.7748 359.914C12.9642 359.393 9.87648 360.823 8.69544 363.467C6.31626 366.564 2.21853 368.003 0.252598 371.504C-0.878852 374.98 2.22537 377.993 1.95462 381.438C2.03385 384.062 3.0399 387.069 5.67729 388.117C7.99092 389.253 10.4448 390.281 13.0012 390.652C14.6348 390.683 16.0786 389.664 17.6068 389.38C18.4156 389.936 18.6379 391.038 19.2667 391.774C20.7395 394.387 22.5082 397.239 25.5515 398.168C27.1743 398.799 28.8523 399.753 29.5819 401.437C31.0611 403.63 33.1199 405.483 35.6034 406.446C33.2191 410.211 34.6555 415.828 38.6353 417.894C41.4972 420.111 46.3075 420.348 48.6519 417.252C50.1584 415.221 50.1766 412.317 48.9676 410.136C50.0581 408.97 51.1644 407.825 52.3312 406.725C56.0208 407.913 59.9829 407.653 63.6839 408.743C68.6879 409.192 73.9844 408.495 78.3278 405.857C81.5352 403.222 82.047 397.572 78.7068 394.831C76.5813 392.979 73.4839 393.578 71.1007 394.494C70.8038 394.544 69.9704 395.076 70.3375 394.478C70.9166 393.796 71.9375 393.662 72.6175 393.065C80.8865 388.105 89.1646 383.157 97.3401 378.042C104.588 376.841 111.564 374.047 117.608 369.888C120.468 368.401 123.778 369.255 126.847 368.866C128.885 368.753 130.92 368.592 132.954 368.424C134.59 373.946 134.972 379.767 135.928 385.438C136.526 387.754 138.625 389.894 141.17 389.627C143.268 389.633 144.928 388.13 146.834 387.562C149.165 387.544 151.026 389.361 153.37 389.41C159.46 390.418 165.907 387.952 169.908 383.293C172.462 380.88 174.905 378.356 177.38 375.845C181.916 381.703 185.865 388.104 191.155 393.348C193.834 394.757 196.96 393.12 198.71 390.99C203.753 386.699 209.361 383.195 214.862 379.514C216.942 382.347 220.103 384.099 222.637 386.478C227.587 390.392 232.915 393.869 238.459 396.844C238.008 399.6 238.106 403.109 240.68 404.827C243.581 406.581 247.063 405.319 250.229 405.549C251.027 405.776 252.745 404.961 252.895 405.923C253.326 410.138 253.399 414.714 255.887 418.336C258.952 420.638 262.987 419.591 266.525 419.999C273.631 420.114 280.849 421.056 287.875 419.581C290.865 418.036 291.487 414.408 292.628 411.555C294.367 407.403 296.242 402.738 294.837 398.215C292.559 389.506 288.969 381.182 286.88 372.428C295.439 369.598 303.261 365.072 310.998 360.53C313.362 359.276 315.886 357.898 318.483 357.464C319.421 358.765 319.495 360.473 320.371 361.825C323.928 369.907 327.201 378.137 329.379 386.693C330.961 389.748 335.224 390.455 338.085 388.86C344.401 386.524 350.918 384.798 357.438 383.105C359.737 382.441 362.025 381.726 364.266 380.885C367.453 382.937 371.127 384.069 374.688 385.269C375.365 385.22 375.994 385.189 375.598 386.087C375.322 389.299 375.149 392.872 376.967 395.682C379.195 397.828 382.553 397.215 385.336 396.951C392.846 396.585 400.409 397.184 407.881 396.207C413.501 393.666 419.494 391.978 425.193 389.6C425.99 391.076 426.557 392.681 427.057 394.273C428.249 396.656 430.88 397.619 432.943 399.035C434.02 400.074 435.135 401.213 435.836 402.504C435.664 403.896 436.032 405.279 436.511 406.546C436.411 408.267 436.026 410.204 437.268 411.64C438.82 413.915 442.371 414.621 444.518 412.771C448.791 410.104 452.959 407.284 457.176 404.554C457.532 404.046 458.034 404.503 458.128 404.959C459.685 407.372 462.534 409.589 465.561 408.728C466.114 408.75 467.329 407.84 467.014 408.949C466.985 411.553 467.419 414.745 469.919 416.144C470.317 416.373 471.18 416.17 471.346 416.486C470.572 417.717 469.266 418.497 468.508 419.755C465.638 423.221 463.632 427.659 464.052 432.233C464.036 437.308 463.774 442.467 464.769 447.463C466.506 451.472 469.466 454.883 472.809 457.631C475.875 459.816 480.245 460.963 483.705 458.982C486.703 457.167 487.837 453.365 487.326 450.052C487.55 447.682 489.834 446.155 490.215 443.813C490.813 441.934 490.549 439.709 491.931 438.168C492.823 436.835 494.325 435.908 494.721 434.242C495.15 432.994 495.581 431.732 496.568 430.826C498.29 428.576 498.061 425.586 498.316 422.931C498.653 421.475 499.917 420.522 500.405 419.147C500.835 418.47 501.836 418.68 502.396 418.091C503.413 417.461 504.327 416.617 505.495 416.272C508.821 418.402 513.534 419.111 516.854 416.597C518.402 415.47 519.308 413.677 519.732 411.86C521.588 409.037 523.041 405.973 524.134 402.785C524.865 400.485 525.059 397.614 523.329 395.715C523.015 395.061 523.595 394.355 523.292 393.655C522.916 390.782 520.073 388.23 517.092 388.92C516.661 388.914 517.779 387.925 517.944 387.477C518.986 385.924 520.022 384.331 521.639 383.352C523.306 381.916 524.285 379.65 526.491 378.904C528.655 377.457 530.52 375.626 532.246 373.692C535.856 374.75 539.638 373.344 542.699 371.469C546.737 370.553 550.394 367.211 550.789 362.954C550.936 361.636 551.528 360.421 552.432 359.459C554.015 357.152 553.871 353.997 552.358 351.695C551.468 350.206 550.073 349.097 548.863 347.916C548.214 346.164 546.055 345.012 546.299 342.996C546.777 340.101 547.755 337.215 549.521 334.854C550.613 334.087 552.044 333.773 552.889 332.646C554.92 330.555 555.226 326.853 553.121 324.736C555.116 323.362 555.606 320.667 555.632 318.408C556.82 320.293 559.162 320.901 561.269 320.773C564.111 320.961 567.35 320.15 568.885 317.545C570.686 314.981 570.393 310.681 567.38 309.13V309.127ZM398.06 138.22C398.827 138.22 399.767 139.321 400.085 140.59C400.312 141.498 400.531 141.633 401.783 141.633C403.197 141.633 403.235 141.671 404.209 144.101C404.754 145.459 405.199 147.161 405.199 147.884C405.199 148.607 405.453 149.843 405.763 150.629C406.074 151.415 406.487 153.198 406.68 154.591C406.959 156.599 407.357 157.602 408.61 159.443L410.189 161.763L409.845 166.01C409.656 168.346 409.529 170.297 409.562 170.348C409.683 170.532 433.157 176.047 434.86 176.292C435.825 176.43 438.815 176.696 441.504 176.882C449.044 177.402 452.208 177.969 452.488 178.849C452.826 179.912 450.35 183.944 449.458 183.785C449.087 183.719 448.502 183.789 448.158 183.94C447.814 184.092 446.422 184.255 445.065 184.304C443.707 184.353 442.57 184.411 442.538 184.433C442.505 184.456 442.729 185.432 443.036 186.603C443.342 187.775 443.486 189.01 443.356 189.348C443.226 189.687 443.337 191.052 443.602 192.383L444.084 194.802L447.327 194.477C450.616 194.149 453.22 194.129 460.063 194.38C462.151 194.458 465.248 194.377 466.945 194.201L470.031 193.881L470.837 196.267L471.644 198.653L470.41 199.947C469.731 200.658 467.174 202.93 464.727 204.997C456.814 211.681 452.691 217.223 450.38 224.282C449.731 226.263 448.615 231.174 447.899 235.194C447.183 239.213 446.417 242.841 446.196 243.254C445.775 244.04 446.254 244.373 448.693 244.984C449.942 245.297 448.28 249.012 443.707 256.129L439.444 262.764L439.178 266.382L438.912 270L439.938 270.466C440.895 270.902 440.926 270.991 440.411 271.777C440.107 272.241 439.306 273.517 438.632 274.612C437.295 276.783 436.94 276.978 436.346 275.869C436.13 275.466 435.953 274.875 435.953 274.556C435.953 274.076 435.547 274.013 433.58 274.186L431.207 274.396L424.069 269.054C420.142 266.115 416.676 263.711 416.365 263.711C416.053 263.711 415.106 264.064 414.26 264.496C412.856 265.211 412.662 265.227 412.062 264.685C411.158 263.867 410.963 263.91 408.759 265.392C407.139 266.481 406.785 266.93 406.59 268.145C406.389 269.4 405.971 269.893 403.5 271.793C401.928 273 400.642 274.168 400.642 274.388C400.642 274.607 400.377 274.685 400.052 274.561C399.727 274.436 398.851 274.589 398.107 274.899C397.203 275.276 395.446 275.464 392.827 275.464H388.901L388.476 273.853C388.03 272.166 385.705 267.701 385.066 267.307C384.451 266.927 384.649 264.911 385.456 263.332C385.874 262.514 386.215 261.452 386.215 260.971C386.215 260.49 385.126 257.765 383.795 254.918C382.463 252.07 381.255 248.947 381.109 247.978C380.729 245.447 379.085 242.829 377.551 242.314C376.456 241.946 376.09 241.423 374.477 237.923C372.688 234.038 372.651 233.885 372.834 231.043C372.982 228.752 373.155 228.102 373.654 227.972C374.152 227.842 374.253 227.463 374.132 226.19C374.01 224.917 373.652 224.248 372.445 223.043L370.913 221.513L364.326 221.751L357.74 221.989L357.733 218.111C357.721 209.648 356.27 196.547 355.103 194.371C354.739 193.692 354.849 193.567 356.122 193.214C356.907 192.996 357.66 192.817 357.795 192.816C357.93 192.815 359.127 192.16 360.453 191.36C361.78 190.561 363.847 189.46 365.049 188.917C366.249 188.372 367.231 187.875 367.231 187.811C367.231 187.748 365.713 182.7 363.859 176.592L360.488 165.488L365.845 158.421C369.033 154.216 371.663 151.112 372.34 150.757C372.966 150.429 374.08 149.532 374.816 148.763C375.874 147.657 377.865 146.628 384.317 143.85C388.807 141.917 392.566 140.233 392.67 140.108C392.947 139.778 397.395 138.219 398.06 138.219L398.06 138.22ZM339.676 114.19C340.82 116.507 340.992 116.683 341.941 116.496C342.505 116.385 345.331 115.99 348.22 115.619C353.295 114.968 353.592 114.968 356.952 115.645C358.866 116.03 361.543 116.717 362.9 117.172C364.257 117.626 367.196 118.478 369.431 119.063C371.666 119.65 373.46 120.298 373.418 120.503C373.376 120.708 374.469 121.496 375.848 122.25C379.482 124.241 386.199 129.625 388.329 132.254C390.933 135.468 392.271 138.024 391.795 138.874C391.581 139.256 387.804 141.09 383.079 143.108C376.664 145.847 374.626 146.882 374.243 147.597C373.97 148.108 373.106 148.852 372.326 149.249C370.832 150.01 369.264 151.852 362.99 160.215L359.147 165.337L362.501 176.327L365.856 187.316L363.333 188.483C361.947 189.126 360.128 190.081 359.293 190.605C358.458 191.129 357.262 191.681 356.635 191.829C356.008 191.979 354.869 192.265 354.103 192.465L352.71 192.83L353.59 194.435C355.176 197.328 356.428 207.599 356.44 217.805L356.446 223.267L363.296 223.019C370.978 222.742 371.632 222.901 372.634 225.298C373.286 226.854 373.29 226.814 372.443 227.036C371.836 227.194 371.706 227.71 371.547 230.587L371.36 233.953L373.434 238.563C375.378 242.883 375.585 243.186 376.742 243.403C377.727 243.587 378.177 244.005 378.981 245.479C379.535 246.494 379.987 247.839 379.987 248.468C379.987 249.097 381.096 251.974 382.452 254.862C383.807 257.75 384.918 260.504 384.919 260.981C384.921 261.459 384.568 262.544 384.134 263.393C383.505 264.624 383.396 265.313 383.599 266.791C383.751 267.89 384.049 268.643 384.332 268.643C384.849 268.643 386.996 272.734 387.366 274.425C387.586 275.427 387.536 275.467 386.069 275.467C385.188 275.467 384.543 275.648 384.543 275.895C384.543 276.642 380.69 275.894 379.072 274.834L377.589 273.862L376.901 274.759C376.522 275.253 375.054 277.491 373.637 279.732C372.222 281.974 370.968 283.808 370.852 283.808C370.736 283.808 368.86 281.753 366.683 279.242C363.197 275.221 362.669 274.752 362.257 275.315C361.999 275.667 361.736 276.112 361.673 276.304C361.608 276.496 360.329 276.199 358.83 275.645C356.12 274.641 356.094 274.639 354.134 275.289L352.164 275.943L350.347 273.904C348.999 272.391 348.222 271.011 347.331 268.548C346.672 266.724 346.01 265.231 345.86 265.231C345.709 265.231 345.401 265.417 345.173 265.646C344.873 265.945 344.543 265.945 343.983 265.646C343.556 265.418 342.299 265.221 341.19 265.207L339.171 265.184L337.934 262.648C337.253 261.254 336.698 259.819 336.7 259.458C336.702 259.099 336.233 258.552 335.659 258.243C335.085 257.934 334.247 257.283 333.797 256.796C333.347 256.31 332.323 255.577 331.52 255.169C330.716 254.76 329.919 254.208 329.749 253.941C329.514 253.574 329.263 253.667 328.722 254.32L328.005 255.184L326.555 253.667C325.757 252.833 324.555 251.862 323.885 251.508C322.845 250.96 322.695 250.708 322.873 249.802C323.066 248.813 322.867 248.606 320.033 246.854C317.572 245.331 317.02 244.822 317.157 244.2C317.25 243.777 317.595 241.937 317.925 240.113C318.37 237.653 318.974 235.951 320.263 233.533C321.99 230.29 321.999 230.254 321.763 227.468C321.566 225.133 321.62 224.664 322.09 224.664C322.401 224.664 322.655 224.608 322.655 224.541C322.655 224.473 322.032 222.983 321.27 221.229C319.85 217.955 316.689 213.579 314.747 212.199C314.145 211.771 312.816 211.223 311.794 210.981C307.723 210.019 306.21 209.291 305.297 207.852L304.418 206.464L306.201 205.612L307.984 204.76L309.605 200.21C310.495 197.708 311.234 195.319 311.246 194.902C311.258 194.486 311.949 193.12 312.783 191.87C313.617 190.618 314.3 189.314 314.3 188.972C314.3 188.629 313.649 186.24 312.854 183.664L311.405 178.978L316.613 179.109C321.789 179.239 321.824 179.234 322.124 178.35C322.289 177.862 322.389 177.325 322.344 177.158C322.299 176.991 322.747 176.447 323.34 175.949C323.933 175.451 324.885 174.37 325.457 173.546L326.496 172.049L329.776 172.765C331.581 173.158 333.253 173.481 333.493 173.481C334.121 173.481 334.842 167.948 334.378 166.696C333.119 163.295 328.561 158.694 326.452 158.694C325.713 158.694 325.667 158.554 325.902 156.995C326.14 155.408 326.091 155.271 325.165 154.919C323.826 154.411 323.913 153.574 325.558 151.134L326.943 149.082L324.982 147.348C323.525 146.061 323.022 145.352 323.027 144.594C323.034 143.662 322.894 143.563 321.421 143.457L319.808 143.34L319.695 140.53C319.62 138.667 319.734 137.626 320.031 137.443C320.372 137.232 320.377 136.867 320.049 135.931C319.305 133.801 319.702 129.363 320.589 129.881C320.994 130.118 323.257 126.155 323.595 124.616C324.058 122.508 325.933 120.586 331.872 116.125C335.125 113.681 337.933 111.682 338.112 111.682C338.291 111.682 338.996 112.81 339.677 114.19L339.676 114.19ZM222.798 76.8011C223.245 76.1756 223.772 75.6639 223.971 75.6639C224.676 75.6639 227.345 73.756 227.969 72.806C228.477 72.0325 228.518 71.6574 228.174 70.905C227.817 70.1212 227.911 69.6351 228.752 67.9236C229.305 66.7983 229.942 65.9423 230.169 66.0214C230.656 66.1904 232.671 64.5056 232.671 63.9291C232.671 63.7105 232.457 63.5266 232.196 63.5198C231.104 63.4919 233.299 62.394 234.446 62.394C235.274 62.394 236.087 62.0428 236.858 61.3512C237.906 60.4115 238.041 60.0302 238.23 57.4654C238.379 55.4636 238.672 54.2939 239.222 53.5153C239.651 52.9068 240.275 51.2858 240.608 49.9135C241.157 47.6493 241.31 47.4074 242.257 47.2981C242.832 47.2327 243.302 46.9441 243.302 46.6572C243.302 45.4688 244.203 45.7659 246.242 47.626C247.43 48.7103 249.091 50.0239 249.934 50.5453C250.776 51.0667 251.847 51.8402 252.313 52.2648C253.149 53.0247 253.185 53.0258 254.719 52.3348C255.974 51.7702 256.399 51.7235 256.908 52.0958C257.256 52.3502 257.839 52.6581 258.204 52.7811C258.57 52.904 258.868 53.3502 258.868 53.7731C258.868 55.125 261.4 57.6982 264.535 59.5338C267.824 61.4588 268.093 61.4605 269.861 59.5731C270.667 58.7131 271.001 58.6101 272.331 58.8087C273.624 59.0028 274.001 58.8981 274.702 58.1536C275.427 57.3835 275.49 57.0704 275.185 55.755C274.991 54.9223 274.83 53.0321 274.824 51.5533L274.815 48.8645L277.112 48.1695C278.374 47.7882 279.527 47.2919 279.673 47.067C279.819 46.8422 280.025 45.6344 280.13 44.3839C280.32 42.1203 280.329 42.106 281.84 41.6023C282.675 41.3246 284.683 41.0007 286.301 40.8852C288.763 40.7076 289.244 40.7668 289.244 41.2449C289.244 41.6365 289.796 41.892 291.005 42.0571C295.404 42.6599 297.791 42.1055 298.167 40.3951C298.428 39.2123 301.069 37.3699 302.504 37.3699C302.937 37.3699 303.611 37.0073 304.003 36.5645C305.603 34.7533 305.855 34.5103 306.514 34.1301C307.064 33.8131 307.15 33.4607 306.945 32.3656C306.8 31.5995 306.4 30.8852 306.033 30.7423C305.673 30.6012 303.542 30.3484 301.295 30.18C297.612 29.9039 297.076 29.7667 295.836 28.7883C291.545 25.4011 290.03 24.3863 288.397 23.8068C287.4 23.4534 286.585 23.0447 286.585 22.899C286.585 22.685 288.397 20.4703 293.593 14.3362C293.637 14.2838 294.668 14.5827 295.884 14.9999C297.099 15.4177 298.323 15.7592 298.603 15.7592C298.884 15.7592 299.753 14.7352 300.536 13.4847C301.319 12.2337 302.217 11.2068 302.53 11.2034C302.845 11.1994 303.768 10.077 304.584 8.70985C305.777 6.70803 306.213 6.26179 306.821 6.42003C307.279 6.54012 308.059 6.24756 308.812 5.67383C310.655 4.27136 310.626 5.16441 308.702 9.2204C307.408 11.9502 307.087 12.9964 307.279 13.8678C307.415 14.4859 307.691 15.0938 307.893 15.2184C308.094 15.3431 310.26 14.3379 312.704 12.985C315.149 11.6326 317.212 10.5864 317.289 10.6604C317.367 10.7344 317.047 14.4022 316.578 18.8111L315.725 26.8275L318.335 29.4622C320.47 31.6166 321.949 32.6383 326.451 35.0715C329.479 36.7079 332.384 38.1719 332.905 38.3255C333.427 38.4792 335.26 39.7821 336.977 41.2204L340.099 43.8352L342.376 42.6878C343.629 42.0565 344.825 41.5391 345.034 41.5391C345.243 41.5391 345.68 42.0508 346.004 42.6764C346.377 43.3969 346.888 43.8136 347.396 43.8136C348.187 43.8136 348.195 43.8904 347.927 48.8201C347.757 51.9324 347.234 55.8046 346.544 59.0546C345.934 61.9301 345.434 64.3451 345.434 64.4214C345.434 64.4977 343.299 65.973 340.689 67.6993L335.943 70.8389V74.9678C335.943 78.2195 335.826 79.1422 335.394 79.3078C334.567 79.6248 330.73 91.6397 330.445 94.8072C330.313 96.2672 330.111 98.0151 329.995 98.6924C329.789 99.8934 329.812 99.9173 330.94 99.6925L332.097 99.4614L334.808 104.864C337.031 109.295 337.428 110.351 337.015 110.733C336.738 110.988 333.772 113.245 330.422 115.747C323.915 120.609 324.165 120.315 321.554 126.181C320.712 128.073 320.223 128.74 319.677 128.74C318.63 128.74 318.527 129.511 318.508 137.554L318.492 144.664H320.192C321.665 144.664 321.894 144.771 321.894 145.455C321.894 145.907 322.628 146.924 323.602 147.824L325.311 149.403L323.982 151.47C322.382 153.959 322.274 155.154 323.602 155.658C324.441 155.977 324.551 156.24 324.551 157.923C324.551 159.758 324.591 159.828 325.616 159.828C327.398 159.828 329.927 161.751 331.68 164.437C333.324 166.956 333.611 168.342 333.059 171.098L332.833 172.225L329.926 171.537C328.327 171.159 326.827 170.843 326.591 170.836C326.356 170.829 325.361 171.796 324.38 172.986C323.04 174.612 322.346 175.152 321.582 175.165C320.522 175.184 320.311 175.897 320.933 177.363C321.191 177.969 320.887 178.026 317.384 178.026C315.276 178.026 312.786 177.822 311.849 177.572C310.913 177.322 310.044 177.221 309.917 177.347C309.79 177.474 310.483 180.14 311.457 183.27L313.228 188.963L311.731 191.172C310.908 192.387 310.113 194.039 309.964 194.843C309.816 195.647 309.083 198.002 308.337 200.076C306.989 203.825 306.97 203.852 305.04 204.82C303.973 205.355 303.033 205.854 302.951 205.927C302.87 206 303.373 206.998 304.068 208.143C305.47 210.453 306.356 210.955 310.813 211.968C313.36 212.546 316.347 214.382 315.742 214.998C315.461 215.284 309.821 216.693 309.174 216.639C308.965 216.622 307.965 216.469 306.953 216.299C304.453 215.88 304.026 215.679 304.271 215.042C304.467 214.534 300.912 206.46 300.493 206.46C300.388 206.46 299.261 206.91 297.989 207.462C296.717 208.012 295.626 208.397 295.563 208.315C295.501 208.233 294.621 207.057 293.607 205.702C292.594 204.346 291.706 203.163 291.635 203.072C291.564 202.982 290.86 203.537 290.071 204.306C289.066 205.287 288.516 205.585 288.237 205.305C287.808 204.878 277.7 206.978 276.825 207.675C276.574 207.876 276.061 207.942 275.685 207.823C275.175 207.661 274.726 208.041 273.917 209.318L272.833 211.03L270.501 209.738C269.219 209.027 266.705 207.974 264.916 207.398L261.662 206.348L261.902 204.769C262.034 203.9 262.43 202.778 262.783 202.276C263.569 201.155 263.599 200.254 262.872 199.651C262.568 199.4 262.039 198.229 261.696 197.051C260.9 194.317 260.137 192.818 259.057 191.865C257.894 190.837 256.099 186.252 255.015 181.535C254.523 179.398 253.928 177.649 253.691 177.649C253.44 177.648 253.168 176.658 253.038 175.278C252.144 165.753 252.248 166.257 250.424 162.671C249.044 159.96 248.257 158.91 246.587 157.553C245.166 156.4 244.545 155.643 244.668 155.216C244.768 154.869 244.661 154.468 244.429 154.324C244.197 154.181 243.891 153.757 243.749 153.381C243.356 152.341 238.623 148.805 238.195 149.233C237.643 149.782 237.425 149.697 235.649 148.235C234.741 147.488 233.363 146.352 232.586 145.711C231.808 145.071 230.441 144.123 229.548 143.607C228.655 143.091 226.715 141.486 225.236 140.042C223.758 138.598 222.362 137.469 222.135 137.533C221.713 137.652 208.751 127.614 208.751 127.168C208.751 126.907 213.008 126.086 214.363 126.086C214.806 126.086 216.045 125.898 217.118 125.669L219.068 125.251L222.327 120.266C225.116 116.003 225.922 114.375 227.895 109.026C230.198 102.78 230.201 102.764 230.111 99.0095L230.021 95.2495L226.004 86.5933L221.987 77.9372L222.798 76.7994L222.798 76.8011ZM278.868 216.593C279.66 216.966 280.267 217.398 280.218 217.554C280.17 217.711 280.13 218.18 280.13 218.597C280.13 219.081 279.877 219.355 279.431 219.355C278.459 219.355 277.59 221.264 278.365 221.697C278.831 221.957 278.679 222.554 277.444 225.327C276.63 227.151 275.962 229.014 275.959 229.465C275.955 230.041 276.802 230.95 278.783 232.499C280.34 233.715 281.621 234.902 281.631 235.136C281.641 235.37 281.308 236.33 280.892 237.268C279.789 239.759 277.839 240.337 274.202 239.249C273.586 239.064 273.349 239.202 273.181 239.844C272.991 240.57 272.789 240.646 271.64 240.431C270.913 240.295 270.218 240.344 270.097 240.538C269.694 241.191 268.427 240.528 267.97 239.425C267.296 237.801 266.679 237.413 265.709 238.005C264.975 238.453 264.782 238.373 263.701 237.173C262.508 235.85 261.907 235.656 258.886 235.627C258.029 235.618 257.371 235.87 256.987 236.352C256.514 236.946 255.133 237.284 249.906 238.079C241.79 239.316 240.534 239.337 239.809 238.246C239.508 237.793 239.084 237.532 238.867 237.666C238.649 237.801 238.075 239.446 237.59 241.323C236.913 243.945 236.6 244.644 236.237 244.343C235.882 244.049 235.582 244.36 235.04 245.586C234.642 246.485 234.195 247.707 234.046 248.303C233.652 249.871 232.678 251.208 231.962 251.159C231.62 251.137 230.657 250.982 229.822 250.814C228.987 250.648 227.107 250.061 225.646 249.51C224.184 248.96 219.499 247.4 215.233 246.045C210.968 244.69 207.294 243.343 207.07 243.05C206.846 242.758 205.979 242.468 205.144 242.405C203.537 242.285 203.327 241.853 203.953 239.958C204.185 239.255 203.995 239.055 202.572 238.513L200.923 237.884L202.193 236.538C203.354 235.31 203.408 235.152 202.817 234.721C202.247 234.305 202.334 234.218 203.549 233.99C205.328 233.657 205.45 233.4 204.578 231.834C204.18 231.122 203.6 230.012 203.287 229.369C202.818 228.406 202.53 228.223 201.652 228.336C199.727 228.582 198.812 227.424 198.533 224.39C198.238 221.172 196.994 219.274 194.441 218.146C192.923 217.475 192.621 217.456 191.172 217.937C189.347 218.543 188.641 219.604 188.633 221.755C188.63 222.665 188.467 223.156 188.199 223.066C187.698 222.899 184.331 211.25 184.743 211.106C185.963 210.684 187.488 209.384 187.488 208.767C187.488 207.804 186.843 207.412 185.253 207.412C184.099 207.412 183.913 207.26 183.448 205.929C183.163 205.112 183.007 204.368 183.101 204.273C183.195 204.18 185.954 203.273 189.232 202.26C192.509 201.247 195.268 200.338 195.365 200.243C195.46 200.147 195.394 198.865 195.216 197.395L194.892 194.723L190.526 189.978L186.16 185.233L179.8 185.471C176.026 185.612 173.441 185.568 173.441 185.362C173.441 185.171 174.789 182.271 176.437 178.92C179.055 173.593 179.568 172.791 180.508 172.555C184.063 171.665 191.176 168.787 191.87 167.958C192.508 167.197 192.99 167.035 194.622 167.035C196.387 167.035 196.838 166.851 198.789 165.338L200.978 163.641L206.098 164.988C210.91 166.255 211.463 166.323 215.273 166.113C219.105 165.9 219.341 165.93 219.57 166.652C219.857 167.553 219.795 167.548 222.292 166.884C224.187 166.38 224.259 166.39 224.469 167.173C224.589 167.619 224.69 168.509 224.692 169.152C224.695 169.795 224.798 170.421 224.92 170.544C225.043 170.666 226.288 169.933 227.687 168.914C229.788 167.382 230.611 167.016 232.428 166.803C233.637 166.661 234.851 166.32 235.126 166.046C235.416 165.756 235.74 164.099 235.899 162.094C236.157 158.836 236.23 158.615 237.174 158.212C237.725 157.976 238.622 157.483 239.168 157.113C239.933 156.595 240.596 156.495 242.078 156.67C244.854 156.998 247.391 159.307 249.458 163.385C251.091 166.608 251.582 169.285 251.831 176.324C251.905 178.438 252.052 179.003 252.549 179.101C252.893 179.168 253.174 179.278 253.174 179.344C253.174 179.41 253.591 181.061 254.102 183.012C255.337 187.74 257.169 192.072 258.327 193.006C258.911 193.475 259.633 194.843 260.224 196.595C260.749 198.152 261.45 199.726 261.782 200.092C262.336 200.703 262.328 200.847 261.694 201.811C261.313 202.391 260.886 203.547 260.745 204.38C260.605 205.214 260.37 206.179 260.223 206.523C260 207.045 260.607 207.35 263.874 208.356C266.028 209.02 268.902 210.196 270.259 210.969C271.616 211.742 273.883 212.864 275.296 213.461C277.381 214.343 277.825 214.676 277.648 215.233C277.483 215.752 277.779 216.082 278.869 216.595L278.868 216.593ZM206.127 250.938L207.085 251.771L206.453 253.855C205.804 255.996 205.826 260.919 206.553 276.042L206.792 281.024L205.123 281.473C204.204 281.72 201.256 282.08 198.57 282.274C195.885 282.468 193.61 282.704 193.516 282.798C193.421 282.893 193.483 286.081 193.652 289.882C193.905 295.54 193.868 296.83 193.45 296.99C193.169 297.098 190.948 297.066 188.514 296.918C186.081 296.771 183.64 296.663 183.091 296.677C182.543 296.69 179.067 296.014 175.367 295.172L168.641 293.642L164.216 295.196C161.781 296.05 157.826 297.171 155.424 297.687C153.023 298.203 150.15 298.909 149.041 299.255C147.375 299.774 146.89 299.799 146.248 299.399C145.584 298.985 145.352 299.029 144.634 299.702C143.359 300.899 139.094 300.71 132.265 299.154C129.237 298.465 125.119 297.471 123.115 296.945L119.47 295.99L115.711 296.949C112.919 297.66 111.437 297.848 109.955 297.677C108.662 297.529 107.106 297.662 105.534 298.056C103.312 298.614 102.865 298.614 100.181 298.06C96.321 297.263 96.4258 297.248 94.6913 298.814C93.0976 300.251 92.3982 300.249 92.3982 298.806C92.3982 297.356 91.4674 296.943 88.093 296.895C86.3813 296.87 84.7699 296.72 84.5128 296.562C84.2506 296.4 84.0437 295.491 84.042 294.495C84.0409 293.516 83.8699 291.675 83.6635 290.403C83.3426 288.43 83.3985 287.768 84.046 285.889C85.198 282.546 85.0475 280.972 83.211 277.151L81.6178 273.835L82.5127 271.522C83.1654 269.837 83.4498 268.206 83.5621 265.507L83.7166 261.803L85.6791 260.483C86.9792 259.609 88.085 259.164 88.9537 259.164C90.2197 259.164 92.3868 258.054 97.5898 254.741L99.554 253.49L99.1681 252.093C98.8398 250.907 98.9333 250.311 99.7843 248.144C100.683 245.856 100.914 245.568 102.015 245.362C103.093 245.16 103.416 244.783 104.652 242.29C105.845 239.883 106.206 239.448 107.012 239.448C108.13 239.448 108.158 239.207 107.42 235.965C107.121 234.649 106.757 231.998 106.612 230.076C106.396 227.196 106.475 226.176 107.062 224.297L107.775 222.014L111.571 222.012C113.66 222.01 116.762 221.733 118.467 221.394L121.565 220.78L125.037 221.943C126.947 222.582 128.749 223.014 129.043 222.902C129.83 222.6 130.031 221.594 129.604 220.107C129.396 219.384 129.226 218.79 129.226 218.789C129.225 218.788 130.259 218.845 131.522 218.916C135.506 219.14 139.574 218.384 142.489 216.878C144.94 215.612 145.318 215.528 148.3 215.594C151.428 215.662 151.524 215.637 153.296 214.286C154.638 213.264 155.335 212.968 156.006 213.136C157.101 213.411 157.305 212.81 157.428 208.935L157.512 206.288L155.008 205.404C152.921 204.667 152.401 204.306 151.89 203.236C151.553 202.53 150.83 201.659 150.283 201.302C149.348 200.69 149.303 200.525 149.535 198.534C149.755 196.642 149.617 195.996 148.237 192.458C147.387 190.28 146.691 188.275 146.691 188.003C146.691 187.631 147.611 187.503 150.393 187.487C152.429 187.475 161.1 187.24 169.662 186.965L185.229 186.466L186.874 188.03C187.779 188.89 189.697 190.89 191.135 192.476C193.526 195.11 193.773 195.537 193.995 197.427L194.238 199.494L192.581 199.975C191.67 200.24 188.758 201.129 186.112 201.952L181.299 203.447L182.263 206.308L183.227 209.171L184.702 208.921C186.606 208.6 186.587 208.961 184.659 209.731C183.824 210.065 183.141 210.488 183.141 210.671C183.141 210.854 183.921 213.779 184.876 217.17C186.127 221.615 186.868 223.596 187.528 224.269C188.43 225.187 188.453 225.191 189.008 224.458C189.318 224.05 189.576 223.257 189.583 222.697C189.597 221.427 190.256 219.652 190.852 219.273C191.586 218.808 193.35 218.934 194.519 219.538C196.107 220.358 197.188 222.072 197.19 223.773C197.194 226.305 197.885 228.048 199.205 228.851C199.871 229.257 200.757 229.596 201.175 229.605C201.951 229.623 203.808 232.05 203.467 232.601C203.367 232.763 202.25 233.114 200.984 233.383C199.72 233.651 198.609 233.992 198.516 234.141C198.424 234.291 199.051 234.689 199.91 235.026C201.212 235.536 201.396 235.731 201.013 236.193C200.76 236.497 200.054 236.856 199.445 236.989C197.663 237.38 197.83 237.757 200.247 238.798L202.521 239.778L202.286 241.246C202.058 242.669 202.096 242.734 203.573 243.398C204.411 243.775 205.27 243.977 205.482 243.845C205.695 243.714 206.329 244.033 206.892 244.554L207.916 245.501L206.542 247.804L205.169 250.107L206.127 250.938ZM84.6958 113.853C84.4786 112.484 84.5545 112.355 86.44 110.875C88.5199 109.242 88.6613 108.984 92.8451 99.1705C93.6898 97.1904 94.9524 94.7156 95.6512 93.6734C97.0409 91.5993 98.8518 85.9109 98.8518 83.6199C98.8518 82.185 98.8575 82.1805 100.708 81.926C101.941 81.7564 102.818 81.8298 103.321 82.1435C104.264 82.7314 113.668 82.0393 115.629 81.2373C116.728 80.7882 117.079 80.8059 118.406 81.3768C119.757 81.9579 120.405 81.9841 124.291 81.6118C129.603 81.103 133.297 81.0546 134.472 81.4798L135.351 81.798L135.153 76.2718C134.98 71.428 134.833 70.453 133.959 68.3715C132.546 65.0025 132.1 63.5693 132.381 63.2893C132.515 63.1555 133.641 63.2603 134.881 63.5238C136.122 63.7862 137.792 63.8972 138.592 63.7708C139.392 63.6439 141.329 63.3741 142.895 63.1703C145.436 62.8414 149.641 61.8794 149.91 61.5658C149.967 61.5009 150.134 57.9065 150.281 53.5802L150.55 45.7135H147.485L147.706 40.5004C147.828 37.6334 148.066 35.1364 148.235 34.9509C148.412 34.7573 149.593 34.878 151.018 35.2354C153.964 35.9748 159.113 36.0414 164.248 35.4068L167.947 34.9491L169.089 36.0425C169.718 36.6442 170.232 37.2652 170.232 37.4234C170.232 37.5816 168.616 38.9573 166.641 40.4805C164.666 42.0036 163.043 43.352 163.034 43.4778C163.008 43.8591 169.992 56.1313 170.313 56.2667C170.733 56.4443 170.668 58.515 170.187 60.3108C169.963 61.1446 169.646 63.0212 169.482 64.4806C169.196 67.0243 169.237 67.2423 170.475 69.7011C171.185 71.1116 171.869 73.0092 171.994 73.9176L172.22 75.5694L169.612 77.1312C167.273 78.5331 167.122 78.6925 168.143 78.6828C168.77 78.6766 170.593 78.4381 172.196 78.1529C174.998 77.6538 175.206 77.668 177.623 78.5451C179.006 79.046 180.954 79.4564 181.952 79.4564C184.069 79.4564 189.006 80.8531 192.895 82.5516L195.626 83.7446L197.642 83.1179C202.309 81.6682 207.314 81.2202 207.865 82.2027C208.177 82.7605 208.348 82.7679 209.523 82.2772C210.243 81.9773 211.337 81.7308 211.953 81.7308C212.57 81.7308 214.412 81.0512 216.047 80.2191C221.129 77.635 220.332 77.0402 224.796 86.7527C228.395 94.5835 228.691 95.4105 228.928 98.261C229.144 100.874 229.053 101.723 228.324 103.948C225.707 111.928 224.413 114.84 221.484 119.342C219.833 121.881 218.239 124.093 217.942 124.258C217.647 124.423 216.145 124.661 214.606 124.787C211.833 125.013 206.284 126.367 206.321 126.808C206.357 127.248 221.405 138.98 221.934 138.98C222.227 138.98 223.315 139.853 224.35 140.919C225.387 141.986 227.431 143.631 228.892 144.574C230.354 145.517 231.891 146.609 232.309 147.001C235.024 149.544 236.384 150.438 237.834 150.633C239.034 150.793 239.825 151.262 241.262 152.659C243.677 155.008 243.727 155.73 241.452 155.418C240.099 155.234 239.55 155.348 238.621 156.009C237.987 156.459 236.959 157.005 236.336 157.223C235.307 157.581 235.182 157.812 234.959 159.767C234.825 160.951 234.596 162.686 234.452 163.624L234.19 165.328L231.931 165.644C230.281 165.874 229.199 166.306 227.913 167.248C226.946 167.957 226.044 168.427 225.909 168.293C225.775 168.158 225.664 167.422 225.664 166.657C225.664 165.892 225.563 165.167 225.44 165.043C225.317 164.92 224.419 165.06 223.446 165.355C221.129 166.057 220.348 166.037 220.348 165.274C220.348 164.715 219.894 164.675 216.077 164.897C211.986 165.136 211.572 165.088 206.272 163.744L200.739 162.34L198.371 164.159C196.138 165.875 195.909 165.965 194.332 165.728C192.534 165.459 191.114 165.949 191.114 166.838C191.114 167.601 190.783 167.753 184.469 169.891L178.774 171.82L175.357 178.656L171.939 185.492L167.953 185.743C162.206 186.106 138.246 186.325 135.111 186.043C131.982 185.761 132.142 185.849 121.709 178.673C116.506 175.094 113.325 172.624 111.916 171.069L109.828 168.766L110.074 166.803C110.28 165.153 110.201 164.721 109.573 164.094C109.163 163.684 108.712 162.734 108.57 161.982C108.429 161.229 107.893 160.115 107.38 159.505C106.802 158.819 106.445 157.922 106.445 157.149C106.445 156.094 105.946 155.392 103.218 152.608C100.021 149.346 99.9906 149.297 99.9906 147.381C99.9906 146.143 99.6492 144.677 99.0416 143.304C97.8845 140.692 97.8622 139.823 98.8939 137.56C99.3351 136.594 99.7854 134.816 99.8949 133.609C100.072 131.665 99.9826 131.27 99.1077 130.125C98.5651 129.415 96.8699 127.893 95.3406 126.744C90.9573 123.45 85.0903 116.346 84.6953 113.854L84.6958 113.853ZM24.9849 333.916C25.169 333.337 24.7478 332.751 23.1256 331.33C21.9719 330.32 21.0257 329.216 21.0234 328.877C21.0211 328.538 21.2782 327.526 21.5957 326.629C21.9263 325.692 22.1822 323.628 22.1959 321.786C22.2181 318.757 22.1634 318.531 21.2166 317.777C20.2892 317.038 20.2408 316.859 20.5714 315.39C20.8986 313.936 20.6096 310.84 20.0641 309.959C19.9495 309.774 20.6079 308.121 21.5278 306.288C24.0358 301.289 25.1952 297.775 25.1952 295.174V292.936L28.7076 291.867L32.2193 290.798L39.9075 279.815C44.1358 273.774 48.612 267.382 49.8546 265.609C52.126 262.369 59.0635 253.5 61.6074 250.584C63.9381 247.914 64.7156 246.939 64.6016 246.829C64.5418 246.772 61.8998 245.45 58.7312 243.892C55.5625 242.334 52.4874 240.718 51.8969 240.302C50.1954 239.102 46.1701 237.174 45.3658 237.174C44.8973 237.174 44.4937 236.775 44.2463 236.066C43.4324 233.734 42.9724 233.755 33.9065 236.531C30.3252 237.628 22.3344 239.013 21.9508 238.604C21.8978 238.547 21.9952 233.895 22.1674 228.265C22.4775 218.103 22.4883 218.006 23.6574 214.863C24.3049 213.121 24.9313 210.648 25.0499 209.365C25.499 204.494 26.7929 196.283 27.8714 191.467C28.4875 188.715 28.992 186.187 28.992 185.848C28.992 184.902 29.4691 185.103 31.0411 186.71C34.0428 189.78 41.7845 190.722 42.2017 188.068C42.2667 187.656 42.5061 186.943 42.7341 186.484C43.2551 185.435 42.8624 181.26 42.0632 179.35C41.5605 178.149 41.5537 177.847 42.0136 177.142C42.3066 176.693 42.6691 175.229 42.8191 173.888C42.9695 172.548 43.4016 170.841 43.7795 170.097C44.1574 169.351 44.5889 168.145 44.7394 167.414C44.8893 166.685 45.3584 165.491 45.7819 164.761C46.4391 163.628 46.5588 162.712 46.5993 158.506C46.646 153.706 46.6141 153.502 45.3926 150.733C43.2705 145.923 43.7578 146.076 38.5805 148.582C36.1261 149.769 33.7823 150.739 33.3713 150.737C32.9609 150.735 31.895 151.012 31.0024 151.352C29.0387 152.101 28.4602 151.768 27.7785 149.495C27.4963 148.556 27.0403 147.895 26.5946 147.779C25.9744 147.616 25.8946 147.325 26.0445 145.768C26.1705 144.461 26.0753 143.89 25.7082 143.749C25.0322 143.491 25.051 142.424 25.7362 142.161C26.0331 142.048 26.6436 142.151 27.0928 142.391C28.2784 143.025 31.5023 141.812 32.3248 140.423C32.8104 139.601 33.3838 139.296 35.0482 138.971C39.3027 138.144 41.3878 136.438 44.6892 131.086C47.171 127.063 47.3734 126.844 49.2452 126.148C50.3225 125.749 51.9328 125.3 52.8231 125.152C54.2823 124.91 54.5747 124.999 55.7786 126.055C56.6438 126.813 57.5211 127.227 58.2661 127.227C58.9238 127.227 59.9778 127.654 60.7239 128.222C61.9859 129.182 67.5445 130.625 70.0263 130.635C70.5689 130.637 71.3926 131.052 71.8777 131.567C72.3582 132.077 73.2297 132.6 73.8157 132.728C74.4016 132.858 75.0953 133.221 75.3581 133.536C76.2216 134.575 79.425 135.947 80.9885 135.947C81.9615 135.947 83.6807 136.485 85.7395 137.435C90.4249 139.596 90.3884 139.59 90.6865 138.236L90.9402 137.084L93.6625 137.089C97.1982 137.097 97.51 137.301 96.9822 139.255C96.6179 140.607 96.6875 141.027 97.6035 143.006C98.2339 144.368 98.7315 146.253 98.8831 147.852L99.1316 150.469L102.219 153.287C105.057 155.878 105.307 156.224 105.307 157.561C105.307 158.538 105.603 159.368 106.207 160.088C106.702 160.677 107.233 161.757 107.387 162.487C107.541 163.216 108.007 164.184 108.423 164.636C109.08 165.351 109.131 165.682 108.813 167.172L108.446 168.887L110.57 171.411C112.647 173.879 118.811 178.443 128.993 185.055L132.367 187.246L138.74 187.429L145.112 187.612L146.873 192.286C148.579 196.814 148.621 197.027 148.232 199.128C148.011 200.322 147.83 201.349 147.83 201.413C147.83 201.475 148.392 201.762 149.077 202.047C149.923 202.4 150.544 203.054 151.006 204.078C151.59 205.371 151.971 205.679 153.651 206.217C156.547 207.144 156.554 207.154 156.305 209.567C156.106 211.495 155.988 211.718 155.081 211.899C154.528 212.01 153.417 212.624 152.61 213.264C151.219 214.367 150.966 214.428 147.745 214.428C144.583 214.428 144.183 214.519 142.007 215.728C138.29 217.792 131.593 218.481 128.846 217.082C128.027 216.666 127.282 216.324 127.189 216.324C127.096 216.324 127.422 217.471 127.913 218.872C128.403 220.274 128.725 221.499 128.629 221.596C128.533 221.692 126.92 221.281 125.047 220.683L121.639 219.596L117.995 220.281C115.208 220.805 113.489 220.907 110.683 220.712L107.014 220.457L106.017 223.603C105.032 226.712 105.027 226.803 105.506 231.11C105.773 233.509 106.115 236.025 106.266 236.703C106.476 237.644 106.412 237.935 105.999 237.935C105.7 237.935 104.807 239.268 104.004 240.913C102.714 243.555 102.4 243.93 101.224 244.23C100.013 244.54 99.7991 244.818 98.7697 247.413C97.9603 249.453 97.6952 250.657 97.8303 251.676L98.019 253.095L93.9196 255.562C91.0308 257.3 89.4416 258.028 88.5405 258.028C87.6632 258.028 86.4987 258.54 84.8372 259.655L82.4135 261.28L82.4933 264.589C82.5606 267.374 82.4192 268.282 81.6002 270.326C81.0655 271.661 80.6277 273.161 80.6277 273.657C80.6277 274.154 81.3112 275.972 82.1462 277.697C83.8927 281.303 83.9582 282.023 82.8638 285.561C82.153 287.858 82.1103 288.437 82.4842 290.697C83.089 294.354 82.9967 296.835 81.9912 303.965L81.1003 310.281L78.8585 313.633C77.6255 315.476 76.396 317.517 76.127 318.17C75.6431 319.342 75.5992 319.358 72.4921 319.521L69.3469 319.685L65.0724 323.453C62.0235 326.141 60.1687 328.144 58.6006 330.443C57.3917 332.215 55.5489 334.495 54.5052 335.509L52.6077 337.352L46.3371 338.585C42.4628 339.347 39.5758 340.121 38.7823 340.611C38.0761 341.047 36.7372 341.507 35.8075 341.634C34.8772 341.761 33.7583 341.935 33.3211 342.023C32.8298 342.12 32.2347 341.857 31.7645 341.335C31.3455 340.871 30.466 339.693 29.8094 338.719C29.0148 337.541 28.1866 336.807 27.3304 336.525C25.6581 335.974 24.6771 334.884 24.9838 333.918L24.9849 333.916ZM216.936 370.06L216.923 371.956L207.347 378.401C202.08 381.945 196.781 385.773 195.57 386.905L193.369 388.963L192.732 388.042C192.382 387.535 189.26 383.367 185.794 378.78C182.328 374.192 179.367 370.232 179.214 369.981C179.062 369.728 179.141 369.197 179.39 368.798C179.638 368.401 179.721 367.759 179.572 367.371C179.348 366.79 177.975 368.014 171.633 374.448C162.424 383.792 161.37 384.474 156.182 384.45C153.465 384.437 152.626 384.274 150.867 383.412C148.075 382.045 146.145 382.071 143.274 383.519C142.033 384.145 140.943 384.656 140.853 384.656C140.763 384.656 140.6 383.846 140.491 382.856C140.383 381.865 140.116 379.434 139.9 377.453C139.684 375.472 139.243 372.913 138.918 371.766C138.593 370.619 138.138 368.743 137.908 367.596C137.238 364.276 136.44 362.616 135.636 362.87C134.249 363.31 126.626 363.942 122.392 363.967L118.025 363.994L112.9 366.797C110.081 368.338 107.433 369.815 107.015 370.079C105.95 370.751 98.1068 372.904 96.7262 372.904C96.0331 372.904 94.9285 373.389 93.9161 374.136C92.9984 374.814 86.2588 378.959 78.9394 383.347L65.6305 391.327L65.2212 394.532C64.9966 396.296 64.682 398.463 64.5235 399.349C64.2596 400.824 64.3024 400.961 65.0308 400.961C65.9662 400.961 73.1533 399.293 74.6028 398.741C75.5496 398.379 75.6129 398.431 75.8232 399.724C76.1874 401.965 74.4415 402.934 68.8196 403.609C65.2964 404.032 64.5623 404.017 62.9344 403.493C61.9118 403.163 59.6249 402.774 57.8528 402.629C54.5987 402.361 52.1522 401.643 52.1522 400.957C52.1522 400.751 51.9904 400.583 51.792 400.583C51.2174 400.583 44.8688 406.77 43.5293 408.635L42.3095 410.334L43.279 411.24C44.549 412.426 44.9885 413.281 44.7063 414.014C44.3364 414.977 42.8396 414.702 41.076 413.347C39.6151 412.224 39.4384 411.923 39.4823 410.627C39.5364 409.023 40.339 408.165 41.7851 408.165C42.3841 408.165 43.5361 407.25 45.4143 405.281C48.5287 402.018 48.8508 401.502 47.5723 401.836C46.7293 402.056 45.6981 401.575 45.6981 400.961C45.6981 400.804 46.2163 400.46 46.8495 400.198C48.213 399.634 48.1195 399.496 45.7762 398.605L43.9898 397.926L42.7729 399.386C42.0553 400.246 40.8451 401.117 39.8254 401.506C38.6736 401.945 37.5291 401.832 36.3917 401.168C35.4547 400.62 34.688 400.041 34.688 399.882C34.688 399.723 33.7692 398.48 32.6463 397.12C30.8912 394.996 30.3053 394.555 28.4693 393.978C26.4766 393.352 24.8162 391.989 24.8162 390.978C24.8162 390.757 24.3516 390.092 23.7839 389.5C22.9232 388.603 22.8246 388.306 23.1917 387.719C23.7206 386.873 23.4721 386.553 22.2848 386.553C21.1534 386.553 21.1653 385.935 22.3287 384.226C22.84 383.474 23.3712 382.41 23.5092 381.862C23.728 380.991 23.5981 380.797 22.4883 380.33C21.7889 380.036 21.085 379.878 20.9231 379.977C20.7618 380.077 20.6683 381.078 20.7156 382.201C20.7629 383.324 20.7224 384.318 20.6255 384.409C20.5292 384.499 19.5722 384.488 18.5 384.382L16.5495 384.19L16.3009 382.32C16.0125 380.147 15.5434 379.847 13.6601 380.633C12.0322 381.312 11.9849 381.586 13.2361 383.071C13.7582 383.691 14.1851 384.452 14.1851 384.762C14.1851 385.552 12.6307 385.88 11.9211 385.24C11.6002 384.951 10.5314 384.512 9.54588 384.265C7.48419 383.747 6.79449 383.101 7.09146 381.965C7.35423 380.962 6.39264 376.653 5.42934 374.515C5.02977 373.629 4.85022 372.904 5.03034 372.904C5.9241 372.904 11.9507 367.778 12.8416 366.261C13.6909 364.814 13.9372 364.631 14.669 364.902C15.1342 365.074 16.1334 365.328 16.8892 365.465C18.162 365.698 18.2994 365.63 18.7457 364.553C19.0107 363.914 20.5024 362.218 22.0602 360.784L24.8926 358.179L24.4656 356.191C24.0604 354.305 24.0917 354.128 25.0721 352.715C26.4515 350.727 29.1522 348.389 31.366 347.267C32.5813 346.65 33.1695 346.113 33.1695 345.618C33.1695 345.214 33.3679 344.449 33.6101 343.918C33.9635 343.144 34.3215 342.952 35.4193 342.952C36.1717 342.952 37.8105 342.463 39.0605 341.864C40.5533 341.149 43.2859 340.411 47.0279 339.712L52.7234 338.649L55.334 336.157C56.7698 334.786 58.7346 332.453 59.7002 330.973C60.8989 329.136 62.7759 327.12 65.6139 324.622C69.6946 321.032 69.808 320.963 71.689 320.96C75.7879 320.951 76.1612 320.766 77.5788 318.035C78.2862 316.673 79.6262 314.524 80.5576 313.261L82.2511 310.964L83.1483 304.527C83.6419 300.987 84.1213 298.014 84.2142 297.922C84.3071 297.829 85.3747 297.926 86.5876 298.135C87.9009 298.362 89.05 298.379 89.4291 298.178C90.3445 297.692 91.2599 298.162 91.2599 299.12C91.2599 300.162 92.2711 301.628 92.9899 301.628C93.2914 301.628 94.2348 300.932 95.0858 300.082C95.9374 299.232 96.8619 298.623 97.1406 298.73C97.4194 298.837 99.0131 299.133 100.682 299.388C103.313 299.79 104.015 299.768 105.964 299.222C107.641 298.753 108.662 298.676 109.983 298.923C111.395 299.186 112.457 299.071 115.217 298.355C117.122 297.861 119.05 297.457 119.501 297.457C119.951 297.457 122.294 297.965 124.704 298.586C136.265 301.563 143.188 302.417 145.005 301.09C145.465 300.754 145.898 300.683 146.159 300.9C146.418 301.114 147.289 301.026 148.438 300.671C149.461 300.354 152.52 299.6 155.235 298.994C157.95 298.388 162.102 297.223 164.463 296.404L168.756 294.916L175.094 296.385C180.769 297.7 182.148 297.877 188.253 298.08C194.931 298.303 195.13 298.334 197.811 299.554C201.797 301.368 202.022 301.414 202.317 300.485C202.456 300.047 202.768 299.762 203.012 299.851C203.255 299.939 203.711 299.796 204.024 299.532C204.978 298.728 209.719 297.453 209.719 298.001C209.719 298.423 216.381 305.887 218.044 307.33C218.414 307.65 218.836 308.546 218.981 309.32C219.203 310.502 219.399 310.728 220.202 310.728C220.729 310.728 221.491 310.551 221.895 310.335C222.506 310.008 222.704 310.101 223.061 310.884C223.298 311.402 223.848 311.878 224.284 311.941C224.937 312.034 226.397 315.055 232.585 329.114C236.714 338.496 240.093 346.26 240.093 346.366C240.093 346.473 239.349 347.154 238.441 347.88C237.013 349.022 236.589 349.73 235.323 353.087L233.859 356.973L225.405 362.569L216.951 368.165L216.938 370.061L216.936 370.06ZM290.217 403.129C289.83 404.589 288.238 408.96 286.002 414.702C285.717 415.434 284.025 415.462 267.156 415.008C262.84 414.893 259.23 414.712 259.134 414.608C259.038 414.503 258.571 411.237 258.097 407.35L257.233 400.282L250.234 400.488L243.234 400.694L243.501 397.282L243.769 393.87L239.282 391.496C233.845 388.62 228.166 384.679 222.713 379.999L218.643 376.505L218.632 374.378C218.625 373.208 218.518 371.498 218.391 370.579L218.162 368.908L226.53 363.261L234.898 357.614L236.308 353.859C237.544 350.572 237.949 349.91 239.56 348.553C240.573 347.701 241.401 346.812 241.401 346.58C241.401 346.348 237.911 338.227 233.646 328.536C227.443 314.442 225.738 310.891 225.132 310.797C224.715 310.733 224.1 310.263 223.767 309.755C223.151 308.816 221.896 308.517 221.468 309.208C220.908 310.114 220.14 309.559 220.14 308.248C220.14 307.286 219.939 306.832 219.426 306.637C218.141 306.147 210.648 297.827 210.648 296.89V296.027L207.516 296.931C205.793 297.429 204.127 297.948 203.814 298.084C203.501 298.221 203.093 298.298 202.908 298.256C202.722 298.214 202.21 298.51 201.769 298.914C200.971 299.646 200.948 299.643 198.119 298.389L195.271 297.128L194.956 290.624C194.782 287.047 194.721 284.04 194.819 283.941C194.917 283.843 197.104 283.603 199.678 283.408C202.253 283.213 205.182 282.78 206.187 282.447L208.015 281.841L207.718 274.767C207.334 265.602 207.36 255.336 207.773 252.798C208.052 251.087 208.002 250.723 207.433 250.308C206.81 249.852 206.846 249.681 207.985 247.667C208.654 246.482 209.349 245.513 209.528 245.513C209.707 245.513 214.216 246.961 219.548 248.731C224.88 250.501 230.158 252.057 231.276 252.188C233.277 252.423 233.324 252.406 234.095 251.15C234.525 250.448 235.071 249.147 235.307 248.261C235.749 246.601 236.026 246.362 236.713 247.048C236.991 247.325 237.428 246.324 238.161 243.73C238.738 241.687 239.272 239.948 239.348 239.867C239.423 239.784 239.734 239.924 240.038 240.175C240.471 240.535 241.516 240.505 244.888 240.036C253.491 238.842 257.468 238.04 257.931 237.407C258.819 236.195 262.002 237.086 263.613 238.998C264.603 240.173 264.696 240.204 265.546 239.649C266.399 239.09 266.465 239.115 267.031 240.207C267.691 241.481 269.8 242.583 270.513 242.025C270.758 241.833 271.553 241.787 272.28 241.923C273.36 242.126 273.641 242.044 273.823 241.472C274.012 240.876 274.458 240.773 276.857 240.773C279.086 240.773 279.833 240.624 280.466 240.052C281.268 239.329 283.18 235.558 283.152 234.755C283.143 234.52 281.776 233.306 280.114 232.058C278.452 230.81 277.092 229.687 277.092 229.564C277.092 229.213 278.996 224.62 279.77 223.104C280.295 222.076 280.36 221.63 280.033 221.303C279.706 220.977 279.753 220.869 280.221 220.869C281.043 220.869 281.177 220.601 281.473 218.376C281.721 216.505 281.716 216.492 280.365 215.848C279.414 215.395 279.074 215.025 279.233 214.613C279.403 214.17 278.792 213.722 276.759 212.802C275.274 212.129 274.058 211.475 274.057 211.346C274.051 210.675 275.742 209.115 276.474 209.115C276.939 209.115 277.482 208.956 277.681 208.761C278.328 208.126 286.57 206.424 287.844 206.662C288.852 206.851 289.235 206.699 290.152 205.744L291.251 204.598L293.156 207.141C294.203 208.539 295.114 209.751 295.181 209.834C295.247 209.916 296.309 209.533 297.54 208.981C298.771 208.429 299.862 207.978 299.963 207.978C300.391 207.978 302.911 214.111 302.911 215.153C302.911 216.568 303.527 216.921 307.009 217.494C309.418 217.892 310.029 217.85 313.209 217.065L316.738 216.194L317.833 217.488C319.091 218.976 320.838 222.857 320.378 223.141C320.207 223.247 320.247 224.806 320.465 226.607L320.863 229.882L319.072 233.241C317.636 235.935 317.137 237.391 316.556 240.582C316.157 242.772 315.829 244.82 315.825 245.134C315.822 245.448 317.101 246.472 318.667 247.409C321.276 248.969 321.507 249.208 321.42 250.243C321.336 251.243 321.552 251.507 323.292 252.518C324.374 253.147 325.479 254.06 325.747 254.548C326.439 255.806 328.242 256.687 328.94 256.108C329.732 255.453 331.2 255.966 332.636 257.4C333.332 258.095 334.232 258.868 334.637 259.118C335.28 259.515 335.224 259.544 334.192 259.348C333.232 259.165 332.687 259.37 331.278 260.445L329.544 261.766L328.938 260.842C328.533 260.225 327.976 259.918 327.263 259.918C326.496 259.918 325.565 259.339 323.976 257.874C322.335 256.36 321.384 255.779 320.321 255.636C319.53 255.531 318.428 255.085 317.87 254.648C317.312 254.211 316.548 253.852 316.17 253.852C314.919 253.852 312.783 252.322 312.783 251.426C312.783 250.697 312.283 250.439 308.813 249.378C306.63 248.711 304.262 248.165 303.55 248.165C302.136 248.165 300.849 249.199 299.45 251.459C298.933 252.294 298.408 252.709 297.957 252.636C297.456 252.555 296.613 253.453 294.942 255.842C293.666 257.667 292.545 259.16 292.45 259.16C292.355 259.16 288.341 257.432 283.531 255.32C278.721 253.208 274.7 251.566 274.596 251.669C274.492 251.773 275.544 254.348 276.933 257.392C278.858 261.607 279.4 263.163 279.21 263.921C279.019 264.682 278.808 264.849 278.312 264.631C277.509 264.278 265.943 262.216 265.76 262.393C265.687 262.463 265.822 263.109 266.06 263.828C266.428 264.942 266.382 265.322 265.745 266.412C264.324 268.844 264.722 277.659 266.278 278.256C267.543 278.741 270.189 278.917 270.427 278.532C270.568 278.304 270.832 278.117 271.012 278.117C271.192 278.117 272.057 281.145 272.934 284.846C273.811 288.548 274.736 292.428 274.99 293.471C275.479 295.484 275.493 295.491 278.018 295.018C279.062 294.822 279.353 294.907 279.514 295.45C279.909 296.782 279.88 300.443 279.471 300.936C279.242 301.212 278.947 301.867 278.815 302.39C278.599 303.249 278.792 303.452 280.778 304.461L282.979 305.579L281.291 305.781L279.602 305.983L278.411 308.956C277.756 310.59 277.026 312.048 276.789 312.193C276.304 312.493 274.133 322.127 272.934 329.301C271.826 335.936 271.084 339.386 270.233 341.85C269.83 343.019 269.501 344.555 269.501 345.264C269.501 345.973 268.817 348.343 267.982 350.532C267.147 352.72 266.463 354.625 266.463 354.766C266.463 354.906 266.976 355.134 267.602 355.271C269.409 355.667 269.092 356.786 266.849 357.921C264.202 359.26 264.124 359.924 266.07 364.529L267.659 368.288L268.865 367.786C269.527 367.51 271.09 367.096 272.336 366.867C274.579 366.453 274.637 366.466 277.937 368.032L281.27 369.613V371.102C281.27 371.983 283.194 378.452 285.984 386.952C289.124 396.515 290.535 401.906 290.219 403.125L290.217 403.129ZM349.801 379.874C347.086 380.574 342.425 382.021 339.441 383.089C335.589 384.469 333.973 384.894 333.861 384.559C333.774 384.3 333.366 382.552 332.954 380.676C332.49 378.564 330.689 373.577 328.231 367.596C322.185 352.881 322.593 353.666 320.525 352.753C317.272 351.317 315.916 351.888 296.052 363.082C294.264 364.09 291.103 365.494 289.028 366.202C286.953 366.911 284.582 367.776 283.758 368.123L282.261 368.756L278.508 366.959L274.757 365.163L271.513 365.829C269.73 366.196 268.236 366.445 268.195 366.382C267.559 365.424 265.687 360.345 265.865 360.059C265.997 359.845 266.94 359.216 267.959 358.662C269.704 357.714 270.241 356.95 270.253 355.4C270.256 355.001 269.832 354.673 269.104 354.513C267.792 354.225 267.774 354.411 269.55 349.786C270.148 348.227 270.638 346.299 270.638 345.502C270.638 344.705 270.879 343.586 271.175 343.016C271.668 342.064 272.721 337.921 273.166 335.181C274.907 324.473 276.934 314.711 277.657 313.558C277.924 313.134 278.69 311.471 279.361 309.861L280.581 306.936H283.203C284.646 306.936 285.826 306.842 285.826 306.728C285.826 306.287 283.657 304.598 281.934 303.696C280.034 302.702 279.486 301.569 280.984 301.727C281.629 301.795 281.868 301.595 281.968 300.904C282.046 300.355 281.857 299.856 281.494 299.653C281.064 299.413 280.889 298.748 280.885 297.344C280.882 296.26 280.771 294.968 280.638 294.473C280.413 293.631 280.272 293.59 278.392 293.81C276.682 294.011 276.358 293.948 276.202 293.382C276.101 293.017 275.205 289.182 274.211 284.859C273.216 280.538 272.279 276.802 272.128 276.558C271.931 276.24 271.5 276.331 270.582 276.887C269.727 277.407 268.912 277.598 268.099 277.471C266.515 277.226 266.082 275.99 266.082 271.708C266.082 269.121 266.247 268.135 266.875 266.966C267.31 266.154 267.589 265.086 267.495 264.593C267.363 263.904 267.466 263.735 267.937 263.869C268.274 263.965 270.429 264.336 272.726 264.694C275.023 265.051 277.364 265.575 277.928 265.856C279.309 266.545 279.251 266.572 280.136 264.84L280.917 263.311L278.834 258.691C277.689 256.149 276.814 254.007 276.89 253.932C277.232 253.59 292.365 260.57 294.69 262.142L297.29 263.9L298.121 262.859C298.578 262.287 299.075 261.819 299.226 261.819C299.376 261.819 301.034 262.928 302.91 264.283C304.786 265.639 306.473 266.747 306.658 266.747C306.843 266.747 307.269 266.364 307.605 265.895C308.212 265.046 308.245 265.072 313.678 270.636L319.14 276.23L319.093 279.001L319.046 281.773L321.115 284.591C325.157 290.099 326.83 292.673 326.83 293.381C326.83 293.775 326.322 295.067 325.702 296.252C325.081 297.436 324.48 298.874 324.365 299.447L324.157 300.49H316.761C312.693 300.49 309.364 300.598 309.364 300.732C309.364 301.527 315.826 312.996 316.767 313.872C317.394 314.455 321.067 317.089 324.931 319.725C338.463 328.958 344.14 332.867 348.471 335.93C353.997 339.841 360.129 342.573 363.377 342.573H364.876L364.607 345.6C364.35 348.496 364.382 348.678 365.327 349.8C365.871 350.445 366.315 351.159 366.315 351.388C366.315 351.616 366.574 352.088 366.89 352.437C367.816 353.459 368.674 357.26 368.184 358.173C367.723 359.032 367.7 358.985 368.888 359.602C369.364 359.85 369.66 360.203 369.545 360.388C369.431 360.573 369.265 361.971 369.178 363.497C368.994 366.713 367.58 370.583 365.95 372.335C365.368 372.961 364.79 373.909 364.666 374.441C364.324 375.9 362.244 376.661 349.798 379.874L349.801 379.874ZM564.602 314.689C564.201 315.567 563.955 315.654 561.891 315.654H559.621L559.847 313.853C559.97 312.863 560.186 311.259 560.326 310.289L560.579 308.525L558.288 309.002C556.358 309.404 555.605 309.825 553.518 311.667C550.739 314.119 550.616 314.323 550.61 316.538C550.608 317.408 550.503 318.744 550.376 319.508L550.146 320.898L546.679 321.156C542.503 321.467 541.345 321.101 536.567 317.964C532.598 315.358 532.77 315.431 532.77 316.349C532.77 317.128 534.515 318.673 537.006 320.1C538.361 320.875 542.149 321.823 545.774 322.292L547.577 322.526V324.786C547.577 326.866 547.656 327.077 548.553 327.418C549.269 327.69 549.496 328.015 549.408 328.64C549.313 329.304 548.921 329.574 547.636 329.858C545.988 330.222 545.979 330.233 543.713 334.746C542.438 337.286 541.522 339.573 541.624 339.963C541.724 340.344 541.557 341.503 541.253 342.539C540.623 344.686 540.886 345.477 543.269 348.599C543.968 349.515 544.54 350.578 544.54 350.96C544.54 351.384 545.102 351.943 545.977 352.388C547.388 353.107 548.092 354.059 548.459 355.747C548.595 356.368 548.365 356.799 547.613 357.334C546.603 358.052 545.679 360.667 545.679 362.808C545.679 364.09 543.057 366.458 541.638 366.458C540.999 366.458 539.896 366.88 539.186 367.396C538.476 367.912 537.491 368.512 536.998 368.73C536.026 369.159 532.507 368.848 532.169 368.303C532.057 368.123 531.752 367.974 531.491 367.974C530.828 367.974 526.943 371.331 526.614 372.19C526.38 372.798 524.596 374.139 521.123 376.315C520.623 376.628 519.751 377.589 519.183 378.451C518.312 379.776 518.076 379.936 517.655 379.485C517.017 378.802 516.443 379.156 516.443 380.233C516.443 381.062 515.041 383.131 512.092 386.651C510.964 387.996 510.325 388.447 509.538 388.447C508.767 388.447 508.34 388.735 507.924 389.538C507.41 390.531 507.42 390.685 508.039 391.244C508.413 391.582 509.104 391.859 509.574 391.859C510.045 391.859 511.398 392.421 512.582 393.108C514.5 394.222 514.918 394.327 516.418 394.064C517.345 393.902 518.168 393.834 518.247 393.914C518.328 393.994 518.124 394.959 517.797 396.061C517.277 397.811 517.462 398.685 518.353 398.683C519.047 398.683 519.595 398.918 519.732 399.276C520.044 400.088 516.978 407.142 515.436 409.159C514.727 410.086 514.277 411.045 514.401 411.366C514.741 412.252 513.757 412.889 511.846 413.02C510.411 413.12 509.763 412.928 508.239 411.953C505.903 410.458 504.709 410.588 501.482 412.688C500.19 413.528 498.616 414.318 497.981 414.445C497.098 414.622 496.715 414.988 496.346 416.006C496.081 416.738 495.549 417.652 495.164 418.036C493.858 419.34 493.354 420.867 493.083 424.347C492.833 427.527 492.738 427.835 491.951 428.033C491.321 428.19 491.02 428.627 490.824 429.673C490.38 432.044 489.579 433.547 488.556 433.935C487.881 434.191 487.589 434.585 487.589 435.234C487.589 435.81 487.318 436.251 486.882 436.389C486.194 436.607 485.78 438.247 485.528 441.747C485.482 442.39 485.007 443.499 484.473 444.211C482.674 446.608 482.274 447.795 482.274 450.721C482.274 452.383 482.082 453.752 481.799 454.107C481.166 454.902 479.699 455.162 478.211 454.744C477.542 454.556 476.891 454.234 476.765 454.029C476.637 453.824 476.291 453.656 475.994 453.656C475.256 453.656 472.532 450.658 470.703 447.834L469.194 445.505L469.058 437.164C468.896 427.221 468.846 427.395 473.567 421.622L476.665 417.833L476.463 415.935C476.119 412.686 475.727 412.081 473.777 411.789L472.061 411.533L472.116 408.803C472.146 407.303 471.959 405.116 471.699 403.942L471.228 401.809L467.543 402.892C465.516 403.489 463.826 403.98 463.786 403.983C463.746 403.987 462.658 402.54 461.369 400.768C460.079 398.995 458.952 397.545 458.863 397.545C458.705 397.545 445.949 405.775 442.929 407.826L441.364 408.889L441.551 407.233C441.674 406.145 441.53 405.161 441.132 404.363C440.701 403.5 440.633 402.949 440.897 402.457C441.372 401.569 440.784 399.954 439.522 398.682C439.004 398.16 437.663 396.753 436.541 395.554C435.418 394.355 434.243 393.374 433.928 393.374C432.366 393.374 431.017 391.753 431.017 389.876C431.017 389.39 430.666 388.693 430.237 388.326C429.804 387.957 429.534 387.369 429.632 387.009C430.269 384.656 430.243 384.301 429.368 383.284L428.475 382.247L425.854 383.706C424.414 384.508 420.415 386.134 416.969 387.318C413.524 388.502 409.594 389.952 408.237 390.539L405.769 391.608L394.949 391.719C388.997 391.78 383.316 391.928 382.324 392.047L380.521 392.264V388.536C380.521 385.337 381.304 380.165 382.272 376.971C382.435 376.431 382.084 376.528 380.454 377.476C379.342 378.122 377.828 379.061 377.09 379.563L375.748 380.476L372.534 379.21C367.036 377.046 365.778 376.277 365.805 375.098C365.819 374.487 366.266 373.653 366.91 373.037C368.442 371.57 370.331 366.488 370.49 363.399C370.561 362.031 370.722 360.64 370.85 360.311C370.988 359.949 370.787 359.506 370.344 359.196C369.895 358.882 369.61 358.24 369.61 357.546C369.611 355.465 369.04 353.39 368.131 352.17C367.636 351.506 367.232 350.804 367.232 350.61C367.232 350.416 366.867 349.793 366.422 349.228C365.725 348.343 365.644 347.885 365.845 345.966C365.974 344.738 365.979 343.239 365.859 342.634C365.651 341.598 365.507 341.524 363.303 341.314C359.4 340.943 354.203 338.55 348.496 334.497C345.75 332.547 339.914 328.504 335.529 325.512C320.879 315.517 318.449 313.818 317.481 312.898C316.67 312.126 311.42 302.563 311.42 301.857C311.42 301.729 314.58 301.625 318.444 301.625H325.467V300.56C325.467 299.973 326.065 298.282 326.796 296.801C327.527 295.32 328.125 293.828 328.125 293.488C328.125 292.488 327.06 290.698 323.944 286.46C320.048 281.162 320.011 281.081 320.294 278.384C320.569 275.747 320.98 276.326 313 268.11L308.249 263.22L307.363 264.249L306.476 265.279L302.696 262.618L298.915 259.957L298 261.126L297.084 262.295L295.33 261.091L293.577 259.886L295.631 256.965C297.11 254.861 297.945 254.012 298.615 253.929C299.148 253.863 299.718 253.438 299.948 252.933C300.641 251.414 302.732 249.305 303.544 249.305C303.973 249.305 305.838 249.759 307.69 250.314C310.363 251.115 311.153 251.517 311.523 252.269C311.78 252.789 312.843 253.642 313.888 254.164C314.932 254.686 316.581 255.512 317.551 256.001C318.521 256.489 319.689 256.888 320.145 256.888C321.364 256.888 324.235 259.388 324.524 260.7C324.824 262.066 325.453 262.509 325.917 261.681C326.475 260.686 327.666 260.941 328.316 262.196C328.64 262.822 329.047 263.333 329.221 263.333C329.395 263.333 330.288 262.738 331.205 262.01C333.082 260.519 334.851 260.27 335.835 261.356C336.172 261.728 336.88 263.007 337.408 264.199L338.367 266.367H340.472C341.63 266.367 343.156 266.609 343.863 266.903C344.57 267.198 345.231 267.357 345.332 267.256C345.527 267.062 347.109 271.041 347.109 271.726C347.109 271.947 348.241 273.299 349.624 274.729L352.14 277.331L353.468 276.778C355.36 275.988 356.695 276.085 359.541 277.223C361.942 278.182 362.062 278.193 362.549 277.527C362.854 277.111 363.182 276.976 363.369 277.191C369.388 284.146 370.788 285.702 371.026 285.702C371.183 285.702 372.554 283.697 374.072 281.247C377.842 275.162 377.704 275.301 379.048 276.256C380.12 277.018 380.711 277.153 384.583 277.515C386.267 277.672 386.522 277.612 386.327 277.101C386.122 276.569 386.607 276.533 390.807 276.773C394.567 276.988 395.862 276.926 397.226 276.465C398.166 276.147 399.191 275.905 399.505 275.926C400.852 276.015 401.444 275.799 401.7 275.125C401.85 274.73 403.169 273.489 404.631 272.368C406.897 270.628 407.34 270.095 407.642 268.742C407.941 267.407 408.255 267.019 409.627 266.292C411.152 265.484 411.299 265.469 411.894 266.063C412.489 266.658 412.651 266.638 414.401 265.752L416.272 264.805L419.563 267.179C421.373 268.485 424.577 270.873 426.682 272.488C430.348 275.299 430.603 275.428 432.752 275.538C434.646 275.636 435.019 275.772 435.139 276.412C435.217 276.829 435.476 277.296 435.713 277.449C436.36 277.868 438.532 277.795 438.811 277.344C438.945 277.127 439.397 277.058 439.814 277.19C440.322 277.351 440.875 277.149 441.477 276.584C442.313 275.8 442.504 275.771 444.042 276.202L445.704 276.666L446.05 279.382C446.304 281.39 446.543 282.098 446.964 282.098C447.397 282.098 447.509 281.711 447.432 280.487C447.344 279.09 447.432 278.876 448.096 278.876C448.804 278.876 448.863 278.633 448.863 275.653V272.431H449.935C450.604 272.431 451.355 272.057 451.929 271.441C452.435 270.897 454.249 269.784 455.958 268.969C457.709 268.135 459.973 266.661 461.138 265.599C462.957 263.938 463.406 263.711 464.862 263.711C465.912 263.711 467.397 264.126 468.925 264.848C470.248 265.474 471.77 265.985 472.306 265.985C472.842 265.985 473.809 266.384 474.455 266.87C478.055 269.582 480.462 270.301 482.87 269.388C483.788 269.04 484.234 269.231 487.2 271.245C489.018 272.48 491.216 273.853 492.085 274.295C492.953 274.738 494.11 275.773 494.656 276.596C496.328 279.119 498.549 280.001 504.757 280.608C506.158 280.745 507.541 281.051 507.828 281.288C508.501 281.843 509.48 284.642 509.785 286.881C509.916 287.844 510.267 288.953 510.564 289.346C510.863 289.738 511.112 290.871 511.119 291.861L511.131 293.662H513.942C516.707 293.662 516.758 293.645 517.139 292.551C517.53 291.432 517.241 287.814 516.689 286.923C516.531 286.667 516.074 286.459 515.672 286.459C514.902 286.459 514.831 286.272 514.195 282.588C513.989 281.398 513.397 279.777 512.878 278.987C512.361 278.195 511.821 277.078 511.681 276.502C511.46 275.596 511.521 275.489 512.133 275.704C512.521 275.84 513.437 276.503 514.168 277.178C516.252 279.101 521.873 282.289 523.18 282.289C524.557 282.289 526.328 284.254 528.134 287.786C528.938 289.358 530.528 291.279 533.278 294L537.258 297.94L539.936 297.749C541.64 297.627 542.663 297.702 542.748 297.956C542.941 298.536 549.301 299.668 550.04 299.255C551.001 298.718 556.396 300.622 559.206 302.491C560.372 303.266 560.382 303.301 559.847 304.582C559.161 306.219 559.424 306.933 560.714 306.933C561.621 306.933 561.701 307.041 561.505 308.017C561.386 308.613 561.175 309.956 561.036 311.001L560.784 312.9L562.914 313.167C564.086 313.313 565.044 313.497 565.044 313.577C565.044 313.657 564.846 314.156 564.604 314.687L564.602 314.689Z" fill="#FF7276"/>
<path d="M333.821 239.75C331.571 242.562 327.259 242.562 325.009 239.75C315.446 227.562 293.509 198.5 293.509 182C293.509 162.125 309.634 146 329.509 146C349.384 146 365.509 162.125 365.509 182C365.509 198.5 343.571 227.562 333.821 239.75ZM329.509 170C325.196 170 321.259 172.438 319.009 176C316.946 179.75 316.946 184.438 319.009 188C321.259 191.75 325.196 194 329.509 194C333.634 194 337.571 191.75 339.821 188C341.884 184.438 341.884 179.75 339.821 176C337.571 172.438 333.634 170 329.509 170Z" fill="#FF7276"/>
</g>
<defs>
<clipPath id="clip0_4_88">
<rect width="570" height="460" fill="white"/>
</clipPath>
</defs>
</svg>
